HIERARCHY
ROOT hip
{
  OFFSET 0 0 0
  CHANNELS 6 Xposition Yposition Zposition Zrotation Yrotation Xrotation
  JOINT abdomen
  {
    OFFSET 0 20.6881 -0.73152
    CHANNELS 3 Zrotation Xrotation Yrotation
    JOINT chest
    {
      OFFSET 0 11.7043 -0.48768
      CHANNELS 3 Zrotation Xrotation Yrotation
      JOINT neck
      {
        OFFSET 0 22.1894 -2.19456
        CHANNELS 3 Zrotation Xrotation Yrotation
        JOINT head
        {
          OFFSET -0.24384 7.07133 1.2192
          CHANNELS 3 Zrotation Xrotation Yrotation
          JOINT leftEye
          {
            OFFSET 4.14528 8.04674 8.04672
            CHANNELS 3 Zrotation Xrotation Yrotation
            End Site
            {
              OFFSET 1 0 0
            }
          }
          JOINT rightEye
          {
            OFFSET -3.6576 8.04674 8.04672
            CHANNELS 3 Zrotation Xrotation Yrotation
            End Site
            {
              OFFSET 1 0 0
            }
          }
        }
      }
      JOINT rCollar
      {
        OFFSET -2.68224 19.2634 -4.8768
        CHANNELS 3 Zrotation Xrotation Yrotation
        JOINT rShldr
        {
          OFFSET -8.77824 -1.95073 1.46304
          CHANNELS 3 Zrotation Xrotation Yrotation
          JOINT rForeArm
          {
            OFFSET -28.1742 -1.7115 0.48768
            CHANNELS 3 Zrotation Xrotation Yrotation
            JOINT rHand
            {
              OFFSET -22.5879 0.773209 7.07136
              CHANNELS 3 Zrotation Xrotation Yrotation
              JOINT rThumb1
              {
                OFFSET -1.2192 -0.487915 3.41376
                CHANNELS 3 Zrotation Xrotation Yrotation
                JOINT rThumb2
                {
                  OFFSET -3.37035 -0.52449 3.41376
                  CHANNELS 3 Zrotation Xrotation Yrotation
                  End Site
                  {
                    OFFSET -1.78271 -1.18214 1.43049
                  }
                }
              }
              JOINT rIndex1
              {
                OFFSET -7.75947 0.938293 5.60832
                CHANNELS 3 Zrotation Xrotation Yrotation
                JOINT rIndex2
                {
                  OFFSET -2.54057 -0.884171 1.56538
                  CHANNELS 3 Zrotation Xrotation Yrotation
                  End Site
                  {
                    OFFSET -1.62519 -0.234802 1.16502
                  }
                }
              }
              JOINT rMid1
              {
                OFFSET -8.24714 1.18213 3.41376
                CHANNELS 3 Zrotation Xrotation Yrotation
                JOINT rMid2
                {
                  OFFSET -3.10165 -0.590103 1.0647
                  CHANNELS 3 Zrotation Xrotation Yrotation
                  End Site
                  {
                    OFFSET -2.48547 -0.328903 0.83742
                  }
                }
              }
              JOINT rRing1
              {
                OFFSET -8.82822 0.546677 1.51678
                CHANNELS 3 Zrotation Xrotation Yrotation
                JOINT rRing2
                {
                  OFFSET -2.60934 -0.819778 -0.0198488
                  CHANNELS 3 Zrotation Xrotation Yrotation
                  End Site
                  {
                    OFFSET -2.33842 -0.294052 0.168128
                  }
                }
              }
              JOINT rPinky1
              {
                OFFSET -8.27202 -0.0477905 -0.4584
                CHANNELS 3 Zrotation Xrotation Yrotation
                JOINT rPinky2
                {
                  OFFSET -1.82734 -0.647385 -0.700984
                  CHANNELS 3 Zrotation Xrotation Yrotation
                  End Site
                  {
                    OFFSET -1.69225 -0.51767 -0.607171
                  }
                }
              }
            }
          }
        }
      }
      JOINT lCollar
      {
        OFFSET 2.68224 19.2634 -4.8768
        CHANNELS 3 Zrotation Xrotation Yrotation
        JOINT lShldr
        {
          OFFSET 8.77824 -1.95073 1.46304
          CHANNELS 3 Zrotation Xrotation Yrotation
          JOINT lForeArm
          {
            OFFSET 28.1742 -1.7115 0.48768
            CHANNELS 3 Zrotation Xrotation Yrotation
            JOINT lHand
            {
              OFFSET 22.5879 0.773209 7.07136
              CHANNELS 3 Zrotation Xrotation Yrotation
              JOINT lThumb1
              {
                OFFSET 1.2192 -0.487915 3.41376
                CHANNELS 3 Zrotation Xrotation Yrotation
                JOINT lThumb2
                {
                  OFFSET 3.37035 -0.52449 3.41376
                  CHANNELS 3 Zrotation Xrotation Yrotation
                  End Site
                  {
                    OFFSET 1.78271 -1.18214 1.43049
                  }
                }
              }
              JOINT lIndex1
              {
                OFFSET 7.75947 0.938293 5.60832
                CHANNELS 3 Zrotation Xrotation Yrotation
                JOINT lIndex2
                {
                  OFFSET 2.54057 -0.884171 1.56538
                  CHANNELS 3 Zrotation Xrotation Yrotation
                  End Site
                  {
                    OFFSET 1.62519 -0.234802 1.16502
                  }
                }
              }
              JOINT lMid1
              {
                OFFSET 8.24714 1.18213 3.41376
                CHANNELS 3 Zrotation Xrotation Yrotation
                JOINT lMid2
                {
                  OFFSET 3.10165 -0.590103 1.0647
                  CHANNELS 3 Zrotation Xrotation Yrotation
                  End Site
                  {
                    OFFSET 2.48547 -0.328903 0.83742
                  }
                }
              }
              JOINT lRing1
              {
                OFFSET 8.82822 0.546677 1.51678
                CHANNELS 3 Zrotation Xrotation Yrotation
                JOINT lRing2
                {
                  OFFSET 2.60934 -0.819778 -0.0198488
                  CHANNELS 3 Zrotation Xrotation Yrotation
                  End Site
                  {
                    OFFSET 2.33842 -0.294052 0.168128
                  }
                }
              }
              JOINT lPinky1
              {
                OFFSET 8.27202 -0.0477905 -0.4584
                CHANNELS 3 Zrotation Xrotation Yrotation
                JOINT lPinky2
                {
                  OFFSET 1.82734 -0.647385 -0.700984
                  CHANNELS 3 Zrotation Xrotation Yrotation
                  End Site
                  {
                    OFFSET 1.69225 -0.51767 -0.607171
                  }
                }
              }
            }
          }
        }
      }
    }
  }
  JOINT rButtock
  {
    OFFSET -8.77824 4.35084 1.2192
    CHANNELS 3 Zrotation Xrotation Yrotation
    JOINT rThigh
    {
      OFFSET 0 -1.70687 -2.19456
      CHANNELS 3 Zrotation Xrotation Yrotation
      JOINT rShin
      {
        OFFSET 0 -36.8199 0.73152
        CHANNELS 3 Zrotation Xrotation Yrotation
        JOINT rFoot
        {
          OFFSET 0.73152 -45.1104 -5.12064
          CHANNELS 3 Zrotation Xrotation Yrotation
          End Site
          {
            OFFSET -1.1221 -3.69964 12.103
          }
        }
      }
    }
  }
  JOINT lButtock
  {
    OFFSET 8.77824 4.35084 1.2192
    CHANNELS 3 Zrotation Xrotation Yrotation
    JOINT lThigh
    {
      OFFSET 0 -1.70687 -2.19456
      CHANNELS 3 Zrotation Xrotation Yrotation
      JOINT lShin
      {
        OFFSET 0 -36.8199 0.73152
        CHANNELS 3 Zrotation Xrotation Yrotation
        JOINT lFoot
        {
          OFFSET -0.73152 -45.1104 -5.12064
          CHANNELS 3 Zrotation Xrotation Yrotation
          End Site
          {
            OFFSET 1.1221 -3.69964 12.103
          }
        }
      }
    }
  }
}
MOTION
Frames:	4
Frame Time:	0.00833333
-93.2388 46.0245 -89.0085 174.569024 13.291866 -176.646728 -3.86153 11.809248 -161.53955 1.795179 5.988999 164.81725 -4.096939 15.169941 -36.447038 25.579801 -12.716516 77.2662 43.151645 10.693917 26.631791 32.134598 7.959003 27.158148 -149.555087 13.347107 150.953428 -140.619077 40.734875 105.383817 161.363067 -70.002649 19.061071 -166.470359 22.601046 136.954629 164.582335 -36.197847 95.576984 -123.301487 35.200544 66.465704 -127.798328 29.600601 124.918278 -14.939886 53.132411 -10.209309 -162.099259 -17.859654 148.947968 -8.818812 46.832632 -0.560453 -0.423356 -16.263795 2.350341 -104.289463 -65.456213 -116.421074 -88.398529 -37.211686 -91.78806 30.933888 -37.615593 20.566568 -0.181699 -66.917594 18.884733 114.450231 -8.884518 -169.127369 162.557149 -29.183604 72.998065 2.992571 -28.670852 7.966822 167.539037 5.781232 -75.96363 -127.196878 -19.415542 -76.096331 137.242278 8.075294 -115.99055 -148.974016 -55.064245 -117.015153 126.950268 56.494099 -117.947516 166.862045 9.989055 -133.954326 105.176596 -35.001745 136.178273 91.449812 -64.714929 148.493233 -5.650151 63.154716 1.450195 -20.034927 -36.055773 -25.99581 -153.599355 70.235305 -26.739091 141.200319 -3.570261 92.995995 97.421923 24.584132 -174.881443 -176.885827 -33.677075 -80.903785 -18.269435 3.300522 3.650846 70.419435 -47.681558 -97.229669 -101.01703 -49.070181 -24.496189 52.419828 -26.619897 117.245069
-93.7915 45.8443 -88.9176 174.67932 14.150504 -176.557664 -2.717808 12.238846 -150.460417 3.835198 5.395398 153.573744 10.249521 29.184274 148.239866 -21.998949 33.758332 -101.928011 37.272868 10.310113 29.952975 31.476663 5.923384 20.806168 -8.567135 24.195612 14.344188 -115.778187 -6.264107 175.949298 -157.158941 29.607638 -85.34819 2.136248 -34.598279 -4.154807 -9.804332 9.005439 -9.150151 -84.306171 5.508198 87.204787 -12.589673 47.549283 5.414106 -20.208897 4.817522 2.034477 2.855674 -5.840732 -5.007141 -115.741939 44.34761 108.080779 -146.028005 4.255594 173.440994 151.872324 -80.126036 123.342488 -80.639162 -39.148784 -88.259449 -110.760318 31.69637 168.654608 7.833982 37.053866 -9.971273 -64.778705 -39.350711 -83.057231 -43.896161 17.428792 -99.723598 22.800181 27.954694 -2.500071 1.482813 -12.523506 -10.645644 -7.38764 -39.629176 55.767337 143.992274 -3.610529 -119.174303 -62.539062 -77.899581 -37.292585 165.217244 -26.381814 -152.438294 173.166628 -15.522126 -155.844302 -44.055319 72.293405 18.066454 69.395494 -75.341462 53.736387 23.156975 8.974107 3.57589 103.547429 67.182925 174.196933 47.234573 24.870715 38.356606 -125.154982 -13.491228 -49.334433 -170.231342 81.380079 -70.108167 139.55429 56.688146 128.179043 -5.913656 4.932309 12.487208 52.390346 -56.932008 -123.324819 -103.828509 -55.491927 167.926443 177.960082 -47.878157 92.359165
-94.3669 45.684999999999995 -88.8062 174.727778 15.009054 -176.469505 -3.603041 12.219072 171.981934 -1.410031 6.316189 -168.493095 -6.118834 15.393627 -38.218096 28.259742 -10.032147 83.538724 31.801907 9.323202 31.94556 31.061413 4.116997 14.739132 -11.302787 28.953993 16.845453 60.185942 -19.06345 5.787895 -6.013842 -5.220196 104.754004 -0.448163 -25.566743 -4.296954 -160.677799 11.351769 98.111854 22.986943 -66.680233 28.454321 -139.109037 -51.44852 153.108013 -132.844176 -4.271599 128.152195 -172.252811 -57.802827 149.338139 -55.57325 72.946075 53.993736 -138.307614 -56.600493 -160.060357 158.839643 -82.762307 147.335818 -126.551119 2.929036 -129.364735 -106.848269 57.323628 -161.022413 154.837904 -12.786125 -165.896825 -133.430858 47.029123 121.573867 165.967529 -24.705237 -46.150991 172.084803 0.261052 -139.451769 169.661529 5.857354 -77.227064 79.100997 -27.115299 -20.710047 154.264664 -22.769364 -122.095633 5.925856 -25.57813 24.115926 166.541936 -30.488076 -153.740889 172.031294 7.714722 -155.548723 -17.956475 16.871634 18.642556 -52.371266 -63.127933 -58.12381 65.951027 -39.655005 38.788063 -28.158507 0.746893 33.260609 132.716968 69.772277 24.54772 164.56269 2.970588 80.742983 99.954147 19.391963 164.384863 176.831039 57.084594 -71.284582 12.141771 10.990664 24.907278 8.576666 -63.288914 21.595905 104.202366 63.934557 -12.432322 -46.638416 -67.939065 -118.090177
-94.9627 45.5467 -88.67 174.704102 15.861602 -176.381456 -1.656179 12.682278 -156.55896 3.754029 5.766446 159.321554 -9.592538 22.522843 -81.318305 35.739786 13.877518 123.085444 26.883718 8.064091 32.864249 30.888353 2.492557 9.004838 15.582808 -58.286872 1.425814 -103.961789 -44.759748 -110.849823 179.673431 1.970169 -76.297922 -5.130943 -8.944938 -3.787325 -179.33719 -15.296571 101.248818 -22.68109 -65.287712 -19.717744 -5.214711 41.660693 -1.659051 -109.264763 42.70777 62.154804 -23.634372 49.191833 18.615336 -159.047082 15.857862 130.30813 -145.901326 5.661685 175.132486 21.252547 -25.541785 7.474045 -131.096513 18.575106 -134.548573 26.554633 -36.244309 -24.108766 0.930738 16.83995 -1.54884 -62.979276 -27.249565 -65.990821 0.627381 1.226412 -104.348081 6.196963 -19.348956 7.740453 -15.47975 -24.233071 -12.891425 76.939389 -63.698735 144.731012 167.388019 -43.891569 -120.671309 173.441181 -8.943912 -135.950738 105.101437 67.448042 -93.500609 -3.376158 -18.156175 -16.655961 -29.408838 52.884327 14.476841 36.052469 33.940459 -15.984662 8.636905 48.187459 -3.893683 122.533788 -20.759273 169.585861 8.293361 6.600278 14.587042 -91.069472 -43.936876 -1.758116 101.751305 41.753435 164.068405 46.323285 -48.878365 120.466554 -158.374968 68.454647 -30.951833 -150.810349 6.042663 -82.819143 -96.51962 34.859203 168.559663 162.052048 -50.760275 72.252506
